<svg width="1200" height="800" viewBox="0 0 1200 800" fill="none" xmlns="http://www.w3.org/2000/svg">
  <rect width="1200" height="800" fill="#0A0A0B"/>
  <rect x="60" y="60" width="1080" height="680" rx="34" fill="url(#paint0_linear)" stroke="#27272A"/>
  <circle cx="220" cy="170" r="120" fill="#F59E0B" fill-opacity="0.16"/>
  <circle cx="980" cy="620" r="160" fill="#38BDF8" fill-opacity="0.12"/>
  <path d="M282 204L350 174L426 204L492 174L562 204L590 336L520 378V594H322V378L252 336L282 204Z" fill="#F8FAFC"/>
  <path d="M364 270L421 230L476 270" stroke="#111827" stroke-width="18" stroke-linecap="round" stroke-linejoin="round"/>
  <rect x="356" y="390" width="128" height="132" rx="22" fill="#111827"/>
  <path d="M376 456H464" stroke="#F59E0B" stroke-width="14" stroke-linecap="round"/>
  <path d="M276 226L350 268V386L286 344L276 226Z" fill="#E4E4E7"/>
  <path d="M576 226L502 268V386L566 344L576 226Z" fill="#E4E4E7"/>
  <path d="M714 208H886L930 312L870 348V602H730V348L670 312L714 208Z" fill="#1F2937"/>
  <path d="M756 242L800 210L844 242" stroke="#F8FAFC" stroke-width="16" stroke-linecap="round" stroke-linejoin="round"/>
  <rect x="760" y="374" width="80" height="128" rx="20" fill="#F59E0B"/>
  <path d="M772 430H826" stroke="#111827" stroke-width="12" stroke-linecap="round"/>
  <path d="M688 232L734 270V352L688 320V232Z" fill="#374151"/>
  <path d="M912 232L866 270V352L912 320V232Z" fill="#374151"/>
  <rect x="146" y="590" width="246" height="92" rx="20" fill="#18181B" stroke="#3F3F46"/>
  <rect x="180" y="620" width="100" height="14" rx="7" fill="#F8FAFC" fill-opacity="0.3"/>
  <rect x="180" y="648" width="150" height="14" rx="7" fill="#F59E0B"/>
  <rect x="786" y="110" width="246" height="92" rx="20" fill="#18181B" stroke="#3F3F46"/>
  <rect x="820" y="140" width="100" height="14" rx="7" fill="#F8FAFC" fill-opacity="0.3"/>
  <rect x="820" y="168" width="150" height="14" rx="7" fill="#38BDF8"/>
  <defs>
    <linearGradient id="paint0_linear" x1="600" y1="60" x2="600" y2="740" gradientUnits="userSpaceOnUse">
      <stop stop-color="#111827"/>
      <stop offset="1" stop-color="#09090B"/>
    </linearGradient>
  </defs>
</svg>
